<svg width="27" height="42" viewBox="0 0 27 42" fill="none" xmlns="http://www.w3.org/2000/svg">
  <g filter="url(#filter0_f_community)">
    <ellipse cx="13.5" cy="39.5" rx="4.5" ry="2.5" fill="black" fill-opacity="0.12"/>
  </g>
  <path d="M13.5 1C20.4036 1 26 6.59644 26 13.5C26 16.3142 25.0694 18.9108 23.5 21C21 24.5 14.5 29 14.5 38C14.5 38.5523 14.0523 39 13.5 39C12.9477 39 12.5 38.5523 12.5 38C12.5 29 6 24.5 3.5 21C1.93058 18.9108 1 16.3142 1 13.5C1 6.59644 6.59644 1 13.5 1Z" fill="url(#paint_gradient_community)"/>
  <path d="M13.5 1C20.4036 1 26 6.59644 26 13.5C26 16.3142 25.0694 18.9108 23.5 21C21 24.5 14.5 29 14.5 38C14.5 38.5523 14.0523 39 13.5 39C12.9477 39 12.5 38.5523 12.5 38C12.5 29 6 24.5 3.5 21C1.93058 18.9108 1 16.3142 1 13.5C1 6.59644 6.59644 1 13.5 1Z" fill="url(#paint0_linear_community)"/>
  <!-- Chat/Forum icon for Community -->
  <g transform="translate(4, 6)">
    <rect x="1" y="2" width="10" height="7" rx="2" fill="#9945ff" stroke="#14f195" stroke-width="1.5"/>
    <path d="M3 5.5L8 5.5M3 7.5L7 7.5" stroke="#14f195" stroke-width="1.2" stroke-linecap="round"/>
    <path d="M5 9L6 11L7 9" fill="#9945ff" stroke="#14f195" stroke-width="1.5" stroke-linejoin="round"/>
    <rect x="8" y="5" width="10" height="7" rx="2" fill="#00d1ff" stroke="#14f195" stroke-width="1.5"/>
    <path d="M10 8.5L15 8.5M10 10.5L14 10.5" stroke="#14f195" stroke-width="1.2" stroke-linecap="round"/>
    <path d="M12 12L13 14L14 12" fill="#00d1ff" stroke="#14f195" stroke-width="1.5" stroke-linejoin="round"/>
  </g>
  <defs>
    <filter id="filter0_f_community" x="7" y="35" width="13" height="9" filterUnits="userSpaceOnUse" color-interpolation-filters="sRGB">
      <feFlood flood-opacity="0" result="BackgroundImageFix"/>
      <feBlend mode="normal" in="SourceGraphic" in2="BackgroundImageFix" result="shape"/>
      <feGaussianBlur stdDeviation="1" result="effect1_foregroundBlur_community"/>
    </filter>
    <linearGradient id="paint_gradient_community" x1="13.5" y1="1" x2="13.5" y2="39" gradientUnits="userSpaceOnUse">
      <stop stop-color="#14f195"/>
      <stop offset="0.5" stop-color="#9945ff"/>
      <stop offset="1" stop-color="#00d1ff"/>
    </linearGradient>
    <linearGradient id="paint0_linear_community" x1="13.5" y1="1" x2="13.5" y2="39" gradientUnits="userSpaceOnUse">
      <stop stop-color="white" stop-opacity="0.4"/>
      <stop offset="1" stop-color="white" stop-opacity="0.1"/>
    </linearGradient>
  </defs>
</svg>
