<svg width="27" height="42" viewBox="0 0 27 42" fill="none" xmlns="http://www.w3.org/2000/svg">
  <g filter="url(#filter0_f_project)">
    <ellipse cx="13.5" cy="39.5" rx="4.5" ry="2.5" fill="black" fill-opacity="0.12"/>
  </g>
  <path d="M13.5 1C20.4036 1 26 6.59644 26 13.5C26 16.3142 25.0694 18.9108 23.5 21C21 24.5 14.5 29 14.5 38C14.5 38.5523 14.0523 39 13.5 39C12.9477 39 12.5 38.5523 12.5 38C12.5 29 6 24.5 3.5 21C1.93058 18.9108 1 16.3142 1 13.5C1 6.59644 6.59644 1 13.5 1Z" fill="url(#paint_gradient_project)"/>
  <path d="M13.5 1C20.4036 1 26 6.59644 26 13.5C26 16.3142 25.0694 18.9108 23.5 21C21 24.5 14.5 29 14.5 38C14.5 38.5523 14.0523 39 13.5 39C12.9477 39 12.5 38.5523 12.5 38C12.5 29 6 24.5 3.5 21C1.93058 18.9108 1 16.3142 1 13.5C1 6.59644 6.59644 1 13.5 1Z" fill="url(#paint0_linear_project)"/>
  <!-- Rocket/Launch icon for Project -->
  <g transform="translate(6, 4)">
    <path d="M7.5 2L7.5 12" stroke="#14f195" stroke-width="2" stroke-linecap="round"/>
    <ellipse cx="7.5" cy="7" rx="3.5" ry="5" fill="url(#paint_rocket)"/>
    <circle cx="7.5" cy="6" r="1.5" fill="#14f195"/>
    <path d="M4.5 10L7.5 12L10.5 10" stroke="#14f195" stroke-width="2" stroke-linecap="round" fill="none"/>
    <path d="M4 6L2 8" stroke="#9945ff" stroke-width="1.5" stroke-linecap="round"/>
    <path d="M11 6L13 8" stroke="#00d1ff" stroke-width="1.5" stroke-linecap="round"/>
  </g>
  <defs>
    <filter id="filter0_f_project" x="7" y="35" width="13" height="9" filterUnits="userSpaceOnUse" color-interpolation-filters="sRGB">
      <feFlood flood-opacity="0" result="BackgroundImageFix"/>
      <feBlend mode="normal" in="SourceGraphic" in2="BackgroundImageFix" result="shape"/>
      <feGaussianBlur stdDeviation="1" result="effect1_foregroundBlur_project"/>
    </filter>
    <linearGradient id="paint_gradient_project" x1="13.5" y1="1" x2="13.5" y2="39" gradientUnits="userSpaceOnUse">
      <stop stop-color="#14f195"/>
      <stop offset="0.5" stop-color="#9945ff"/>
      <stop offset="1" stop-color="#00d1ff"/>
    </linearGradient>
    <linearGradient id="paint0_linear_project" x1="13.5" y1="1" x2="13.5" y2="39" gradientUnits="userSpaceOnUse">
      <stop stop-color="white" stop-opacity="0.4"/>
      <stop offset="1" stop-color="white" stop-opacity="0.1"/>
    </linearGradient>
    <linearGradient id="paint_rocket" x1="7.5" y1="2" x2="7.5" y2="12" gradientUnits="userSpaceOnUse">
      <stop stop-color="#9945ff" stop-opacity="0.8"/>
      <stop offset="1" stop-color="#00d1ff" stop-opacity="0.8"/>
    </linearGradient>
  </defs>
</svg>
